RobotoSerifDisplay-RegularWidth1750.ufo
<glyph name="percent" format="2">
  <advance width="928"/>
  <unicode hex="0025"/>
  <outline>
    <contour>
      <point x="235" y="720" type="curve" smooth="yes"/>
      <point x="121" y="720"/>
      <point x="39" y="648"/>
      <point x="39" y="551" type="curve" smooth="yes"/>
      <point x="39" y="453"/>
      <point x="121" y="382"/>
      <point x="235" y="382" type="curve" smooth="yes"/>
      <point x="349" y="382"/>
      <point x="430" y="454"/>
      <point x="430" y="551" type="curve" smooth="yes"/>
      <point x="430" y="649"/>
      <point x="349" y="720"/>
    </contour>
    <contour>
      <point x="235" y="405" type="curve" smooth="yes"/>
      <point x="164" y="405"/>
      <point x="123" y="454"/>
      <point x="123" y="551" type="curve" smooth="yes"/>
      <point x="123" y="648"/>
      <point x="164" y="697"/>
      <point x="235" y="697" type="curve" smooth="yes"/>
      <point x="306" y="697"/>
      <point x="346" y="648"/>
      <point x="346" y="551" type="curve" smooth="yes"/>
      <point x="346" y="454"/>
      <point x="306" y="405"/>
    </contour>
    <contour>
      <point x="691" y="328" type="curve" smooth="yes"/>
      <point x="577" y="328"/>
      <point x="496" y="256"/>
      <point x="496" y="159" type="curve" smooth="yes"/>
      <point x="496" y="61"/>
      <point x="577" y="-10"/>
      <point x="691" y="-10" type="curve" smooth="yes"/>
      <point x="805" y="-10"/>
      <point x="887" y="62"/>
      <point x="887" y="159" type="curve" smooth="yes"/>
      <point x="887" y="257"/>
      <point x="805" y="328"/>
    </contour>
    <contour>
      <point x="691" y="13" type="curve" smooth="yes"/>
      <point x="620" y="13"/>
      <point x="580" y="62"/>
      <point x="580" y="159" type="curve" smooth="yes"/>
      <point x="580" y="256"/>
      <point x="620" y="305"/>
      <point x="691" y="305" type="curve" smooth="yes"/>
      <point x="762" y="305"/>
      <point x="802" y="256"/>
      <point x="802" y="159" type="curve" smooth="yes"/>
      <point x="802" y="62"/>
      <point x="762" y="13"/>
    </contour>
    <component base="fraction" xOffset="253"/>
  </outline>
</glyph>
<glyph name="ampersand" format="2">
  <advance width="908"/>
  <unicode hex="0026"/>
  <outline>
    <contour>
      <point x="763" y="331" type="curve" smooth="yes"/>
      <point x="772" y="364"/>
      <point x="802" y="369"/>
      <point x="863" y="369" type="curve" smooth="yes"/>
      <point x="868" y="369" type="line"/>
      <point x="868" y="394" type="line"/>
      <point x="616" y="394" type="line"/>
      <point x="616" y="369" type="line"/>
      <point x="622" y="369" type="line" smooth="yes"/>
      <point x="658" y="369"/>
      <point x="716" y="366"/>
      <point x="716" y="359" type="curve"/>
      <point x="714" y="224"/>
      <point x="613" y="19"/>
      <point x="376" y="19" type="curve" smooth="yes"/>
      <point x="237" y="19"/>
      <point x="168" y="91"/>
      <point x="168" y="200" type="curve" smooth="yes"/>
      <point x="168" y="302"/>
      <point x="241" y="361"/>
      <point x="350" y="394" type="curve"/>
      <point x="330" y="408" type="line"/>
      <point x="181" y="374"/>
      <point x="66" y="306"/>
      <point x="66" y="195" type="curve" smooth="yes"/>
      <point x="66" y="73"/>
      <point x="180" y="-10"/>
      <point x="367" y="-10" type="curve" smooth="yes"/>
      <point x="647" y="-10"/>
      <point x="739" y="235"/>
    </contour>
    <contour>
      <point x="877" y="0" type="line"/>
      <point x="877" y="27" type="line"/>
      <point x="862" y="27" type="line" smooth="yes"/>
      <point x="809" y="27"/>
      <point x="768" y="59"/>
      <point x="716" y="96" type="curve" smooth="yes"/>
      <point x="458" y="284"/>
      <point x="335" y="431"/>
      <point x="335" y="550" type="curve" smooth="yes"/>
      <point x="335" y="651"/>
      <point x="388" y="693"/>
      <point x="462" y="693" type="curve" smooth="yes"/>
      <point x="530" y="693"/>
      <point x="567" y="649"/>
      <point x="567" y="587" type="curve" smooth="yes"/>
      <point x="567" y="499"/>
      <point x="488" y="457"/>
      <point x="354" y="415" type="curve"/>
      <point x="376" y="399" type="line"/>
      <point x="522" y="440"/>
      <point x="650" y="494"/>
      <point x="650" y="591" type="curve" smooth="yes"/>
      <point x="650" y="666"/>
      <point x="582" y="718"/>
      <point x="462" y="718" type="curve" smooth="yes"/>
      <point x="334" y="718"/>
      <point x="242" y="654"/>
      <point x="242" y="552" type="curve" smooth="yes"/>
      <point x="242" y="383"/>
      <point x="450" y="194"/>
      <point x="716" y="0" type="curve"/>
    </contour>
  </outline>
</glyph>
<glyph name="zero" format="2">
  <advance width="695"/>
  <unicode hex="0030"/>
  <outline>
    <contour>
      <point x="348" y="-10" type="curve" smooth="yes"/>
      <point x="525" y="-10"/>
      <point x="653" y="117"/>
      <point x="653" y="305" type="curve" smooth="yes"/>
      <point x="653" y="493"/>
      <point x="525" y="619"/>
      <point x="348" y="619" type="curve" smooth="yes"/>
      <point x="170" y="619"/>
      <point x="42" y="493"/>
      <point x="42" y="305" type="curve" smooth="yes"/>
      <point x="42" y="117"/>
      <point x="170" y="-10"/>
    </contour>
    <contour>
      <point x="348" y="17" type="curve" smooth="yes"/>
      <point x="216" y="17"/>
      <point x="143" y="130"/>
      <point x="143" y="305" type="curve" smooth="yes"/>
      <point x="143" y="481"/>
      <point x="216" y="592"/>
      <point x="348" y="592" type="curve" smooth="yes"/>
      <point x="479" y="592"/>
      <point x="552" y="481"/>
      <point x="552" y="305" type="curve" smooth="yes"/>
      <point x="552" y="129"/>
      <point x="479" y="17"/>
    </contour>
  </outline>
</glyph>
<glyph name="one" format="2">
  <advance width="695"/>
  <unicode hex="0031"/>
  <outline>
    <contour>
      <point x="429" y="66" type="curve" smooth="yes"/>
      <point x="429" y="609" type="line"/>
      <point x="369" y="609" type="line"/>
      <point x="327" y="552"/>
      <point x="235" y="528"/>
      <point x="112" y="527" type="curve"/>
      <point x="112" y="478" type="line"/>
      <point x="208" y="477"/>
      <point x="321" y="522"/>
      <point x="346" y="572" type="curve"/>
      <point x="343" y="568"/>
      <point x="336" y="566"/>
      <point x="332" y="561" type="curve"/>
      <point x="332" y="66" type="line" smooth="yes"/>
      <point x="332" y="36"/>
      <point x="285" y="28"/>
      <point x="179" y="28" type="curve" smooth="yes"/>
      <point x="130" y="28" type="line"/>
      <point x="130" y="0" type="line"/>
      <point x="629" y="0" type="line"/>
      <point x="629" y="28" type="line"/>
      <point x="595" y="28" type="line" smooth="yes"/>
      <point x="482" y="28"/>
      <point x="429" y="36"/>
    </contour>
  </outline>
</glyph>
<glyph name="seven" format="2">
  <advance width="695"/>
  <unicode hex="0037"/>
  <outline>
    <contour>
      <point x="269" y="544" type="line" smooth="yes"/>
      <point x="173" y="544"/>
      <point x="136" y="534"/>
      <point x="125" y="483" type="curve" smooth="yes"/>
      <point x="107" y="399" type="line"/>
      <point x="73" y="399" type="line"/>
      <point x="73" y="609" type="line"/>
      <point x="666" y="609" type="line"/>
      <point x="666" y="560" type="line"/>
      <point x="515" y="397"/>
      <point x="378" y="249"/>
      <point x="345" y="-77" type="curve"/>
      <point x="242" y="-77" type="line"/>
      <point x="282" y="222"/>
      <point x="543" y="488"/>
      <point x="635" y="569" type="curve"/>
      <point x="637" y="544" type="line"/>
    </contour>
  </outline>
</glyph>
<glyph name="eight" format="2">
  <advance width="695"/>
  <unicode hex="0038"/>
  <outline>
    <contour>
      <point x="348" y="19" type="curve" smooth="yes"/>
      <point x="230" y="19"/>
      <point x="149" y="84"/>
      <point x="149" y="193" type="curve" smooth="yes"/>
      <point x="149" y="308"/>
      <point x="230" y="364"/>
      <point x="348" y="364" type="curve" smooth="yes"/>
      <point x="465" y="364"/>
      <point x="546" y="308"/>
      <point x="546" y="193" type="curve" smooth="yes"/>
      <point x="546" y="84"/>
      <point x="465" y="19"/>
    </contour>
    <contour>
      <point x="348" y="-10" type="curve" smooth="yes"/>
      <point x="519" y="-10"/>
      <point x="649" y="73"/>
      <point x="649" y="192" type="curve" smooth="yes"/>
      <point x="649" y="312"/>
      <point x="513" y="387"/>
      <point x="348" y="387" type="curve" smooth="yes"/>
      <point x="182" y="387"/>
      <point x="46" y="312"/>
      <point x="46" y="192" type="curve" smooth="yes"/>
      <point x="46" y="73"/>
      <point x="176" y="-10"/>
    </contour>
    <contour>
      <point x="348" y="389" type="curve" smooth="yes"/>
      <point x="255" y="389"/>
      <point x="188" y="440"/>
      <point x="188" y="538" type="curve" smooth="yes"/>
      <point x="188" y="636"/>
      <point x="253" y="691"/>
      <point x="348" y="691" type="curve" smooth="yes"/>
      <point x="442" y="691"/>
      <point x="507" y="636"/>
      <point x="507" y="538" type="curve" smooth="yes"/>
      <point x="507" y="440"/>
      <point x="440" y="389"/>
    </contour>
    <contour>
      <point x="348" y="369" type="curve" smooth="yes"/>
      <point x="492" y="369"/>
      <point x="602" y="436"/>
      <point x="602" y="543" type="curve" smooth="yes"/>
      <point x="602" y="647"/>
      <point x="492" y="720"/>
      <point x="348" y="720" type="curve" smooth="yes"/>
      <point x="203" y="720"/>
      <point x="93" y="647"/>
      <point x="93" y="543" type="curve" smooth="yes"/>
      <point x="93" y="436"/>
      <point x="203" y="369"/>
    </contour>
  </outline>
</glyph>
<glyph name="E" format="2">
  <advance width="728"/>
  <unicode hex="0045"/>
  <outline>
    <contour>
      <point x="677" y="200" type="line"/>
      <point x="642" y="200" type="line"/>
      <point x="621" y="84" type="line" smooth="yes"/>
      <point x="614" y="43"/>
      <point x="572" y="31"/>
      <point x="462" y="31" type="curve" smooth="yes"/>
      <point x="245" y="31" type="line"/>
      <point x="245" y="679" type="line"/>
      <point x="446" y="679" type="line" smooth="yes"/>
      <point x="550" y="679"/>
      <point x="588" y="667"/>
      <point x="597" y="628" type="curve" smooth="yes"/>
      <point x="616" y="535" type="line"/>
      <point x="651" y="535" type="line"/>
      <point x="651" y="710" type="line"/>
      <point x="39" y="710" type="line"/>
      <point x="39" y="683" type="line"/>
      <point x="49" y="683" type="line" smooth="yes"/>
      <point x="102" y="683"/>
      <point x="148" y="677"/>
      <point x="148" y="649" type="curve" smooth="yes"/>
      <point x="148" y="61" type="line" smooth="yes"/>
      <point x="148" y="33"/>
      <point x="103" y="27"/>
      <point x="49" y="27" type="curve" smooth="yes"/>
      <point x="39" y="27" type="line"/>
      <point x="39" y="0" type="line"/>
      <point x="677" y="0" type="line"/>
    </contour>
    <contour>
      <point x="229" y="377" type="curve"/>
      <point x="229" y="350" type="line"/>
      <point x="381" y="348"/>
      <point x="461" y="346"/>
      <point x="545" y="330" type="curve"/>
      <point x="545" y="395" type="line"/>
      <point x="461" y="380"/>
      <point x="381" y="379"/>
    </contour>
  </outline>
</glyph>
<glyph name="J" format="2">
  <advance width="706"/>
  <unicode hex="004A"/>
  <outline>
    <contour>
      <point x="336" y="710" type="line"/>
      <point x="336" y="683" type="line"/>
      <point x="358" y="683" type="line" smooth="yes"/>
      <point x="417" y="683"/>
      <point x="462" y="677"/>
      <point x="462" y="649" type="curve" smooth="yes"/>
      <point x="462" y="233" type="line" smooth="yes"/>
      <point x="462" y="65"/>
      <point x="398" y="21"/>
      <point x="289" y="21" type="curve" smooth="yes"/>
      <point x="207" y="21"/>
      <point x="151" y="47"/>
      <point x="131" y="82" type="curve"/>
      <point x="101" y="119"/>
      <point x="118" y="49"/>
      <point x="163" y="38" type="curve"/>
      <point x="163" y="150" type="line"/>
      <point x="65" y="150" type="line"/>
      <point x="65" y="60" type="line"/>
      <point x="104" y="25"/>
      <point x="181" y="-10"/>
      <point x="289" y="-10" type="curve" smooth="yes"/>
      <point x="448" y="-10"/>
      <point x="560" y="52"/>
      <point x="560" y="234" type="curve" smooth="yes"/>
      <point x="560" y="649" type="line" smooth="yes"/>
      <point x="560" y="677"/>
      <point x="605" y="683"/>
      <point x="659" y="683" type="curve" smooth="yes"/>
      <point x="668" y="683" type="line"/>
      <point x="668" y="710" type="line"/>
    </contour>
  </outline>
</glyph>
<glyph name="K" format="2">
  <advance width="862"/>
  <unicode hex="004B"/>
  <outline>
    <contour>
      <point x="39" y="0" type="line"/>
      <point x="353" y="0" type="line"/>
      <point x="353" y="27" type="line"/>
      <point x="342" y="27" type="line" smooth="yes"/>
      <point x="299" y="27"/>
      <point x="245" y="30"/>
      <point x="245" y="37" type="curve" smooth="yes"/>
      <point x="245" y="673" type="line" smooth="yes"/>
      <point x="245" y="680"/>
      <point x="299" y="683"/>
      <point x="342" y="683" type="curve" smooth="yes"/>
      <point x="353" y="683" type="line"/>
      <point x="353" y="710" type="line"/>
      <point x="39" y="710" type="line"/>
      <point x="39" y="683" type="line"/>
      <point x="49" y="683" type="line" smooth="yes"/>
      <point x="102" y="683"/>
      <point x="148" y="677"/>
      <point x="148" y="649" type="curve" smooth="yes"/>
      <point x="148" y="61" type="line" smooth="yes"/>
      <point x="148" y="33"/>
      <point x="103" y="27"/>
      <point x="49" y="27" type="curve" smooth="yes"/>
      <point x="39" y="27" type="line"/>
    </contour>
    <contour>
      <point x="531" y="0" type="line"/>
      <point x="848" y="0" type="line"/>
      <point x="848" y="27" type="line"/>
      <point x="840" y="27" type="line" smooth="yes"/>
      <point x="783" y="27"/>
      <point x="766" y="32"/>
      <point x="736" y="60" type="curve" smooth="yes"/>
      <point x="355" y="411" type="line"/>
      <point x="345" y="373" type="line"/>
      <point x="681" y="645" type="line" smooth="yes"/>
      <point x="713" y="674"/>
      <point x="732" y="683"/>
      <point x="789" y="683" type="curve" smooth="yes"/>
      <point x="803" y="683" type="line"/>
      <point x="803" y="710" type="line"/>
      <point x="554" y="710" type="line"/>
      <point x="554" y="683" type="line"/>
      <point x="573" y="683" type="line" smooth="yes"/>
      <point x="610" y="683"/>
      <point x="659" y="677"/>
      <point x="660" y="669" type="curve"/>
      <point x="289" y="363" type="line"/>
      <point x="289" y="355" type="line"/>
      <point x="636" y="37" type="line"/>
      <point x="636" y="30"/>
      <point x="581" y="27"/>
      <point x="546" y="27" type="curve" smooth="yes"/>
      <point x="531" y="27" type="line"/>
    </contour>
  </outline>
</glyph>
<glyph name="X" format="2">
  <advance width="840"/>
  <unicode hex="0058"/>
  <outline>
    <contour>
      <point x="43" y="683" type="line"/>
      <point x="50" y="683" type="line" smooth="yes"/>
      <point x="94" y="683"/>
      <point x="118" y="681"/>
      <point x="138" y="654" type="curve" smooth="yes"/>
      <point x="381" y="345" type="line"/>
      <point x="388" y="342" type="line"/>
      <point x="628" y="39" type="line"/>
      <point x="628" y="31"/>
      <point x="573" y="27"/>
      <point x="533" y="27" type="curve" smooth="yes"/>
      <point x="512" y="27" type="line"/>
      <point x="512" y="0" type="line"/>
      <point x="824" y="0" type="line"/>
      <point x="824" y="27" type="line"/>
      <point x="812" y="27" type="line" smooth="yes"/>
      <point x="769" y="27"/>
      <point x="744" y="30"/>
      <point x="724" y="56" type="curve" smooth="yes"/>
      <point x="457" y="390" type="line"/>
      <point x="452" y="392" type="line"/>
      <point x="233" y="672" type="line"/>
      <point x="233" y="679"/>
      <point x="287" y="683"/>
      <point x="329" y="683" type="curve" smooth="yes"/>
      <point x="349" y="683" type="line"/>
      <point x="349" y="710" type="line"/>
      <point x="43" y="710" type="line"/>
    </contour>
    <contour>
      <point x="17" y="0" type="line"/>
      <point x="280" y="0" type="line"/>
      <point x="280" y="27" type="line"/>
      <point x="258" y="27" type="line" smooth="yes"/>
      <point x="196" y="27"/>
      <point x="161" y="37"/>
      <point x="161" y="49" type="curve"/>
      <point x="416" y="349" type="line"/>
      <point x="391" y="375" type="line"/>
      <point x="142" y="86" type="line" smooth="yes"/>
      <point x="109" y="46"/>
      <point x="81" y="27"/>
      <point x="29" y="27" type="curve" smooth="yes"/>
      <point x="17" y="27" type="line"/>
    </contour>
    <contour>
      <point x="445" y="359" type="line"/>
      <point x="678" y="636" type="line" smooth="yes"/>
      <point x="708" y="672"/>
      <point x="735" y="683"/>
      <point x="782" y="683" type="curve" smooth="yes"/>
      <point x="793" y="683" type="line"/>
      <point x="793" y="710" type="line"/>
      <point x="530" y="710" type="line"/>
      <point x="530" y="683" type="line"/>
      <point x="552" y="683" type="line" smooth="yes"/>
      <point x="621" y="683"/>
      <point x="649" y="672"/>
      <point x="649" y="659" type="curve"/>
      <point x="419" y="384" type="line"/>
    </contour>
  </outline>
</glyph>
<glyph name="d" format="2">
  <advance width="771"/>
  <unicode hex="0064"/>
  <outline>
    <contour>
      <point x="565" y="0" type="line"/>
      <point x="754" y="0" type="line"/>
      <point x="754" y="27" type="line"/>
      <point x="751" y="27" type="line"/>
      <point x="693" y="27"/>
      <point x="654" y="33"/>
      <point x="654" y="61" type="curve" smooth="yes"/>
      <point x="654" y="750" type="line"/>
      <point x="457" y="750" type="line"/>
      <point x="457" y="724" type="line"/>
      <point x="474" y="722" type="line" smooth="yes"/>
      <point x="536" y="714"/>
      <point x="560" y="707"/>
      <point x="560" y="681" type="curve" smooth="yes"/>
      <point x="560" y="115" type="line"/>
      <point x="565" y="115" type="line"/>
    </contour>
    <contour>
      <point x="330" y="-10" type="curve" smooth="yes"/>
      <point x="441" y="-10"/>
      <point x="512" y="31"/>
      <point x="576" y="112" type="curve"/>
      <point x="576" y="155" type="line"/>
      <point x="519" y="72"/>
      <point x="450" y="23"/>
      <point x="345" y="23" type="curve" smooth="yes"/>
      <point x="213" y="23"/>
      <point x="140" y="114"/>
      <point x="140" y="255" type="curve" smooth="yes"/>
      <point x="140" y="400"/>
      <point x="216" y="495"/>
      <point x="355" y="495" type="curve" smooth="yes"/>
      <point x="452" y="495"/>
      <point x="523" y="455"/>
      <point x="576" y="373" type="curve"/>
      <point x="576" y="420" type="line"/>
      <point x="517" y="494"/>
      <point x="446" y="528"/>
      <point x="344" y="528" type="curve" smooth="yes"/>
      <point x="168" y="528"/>
      <point x="40" y="416"/>
      <point x="40" y="255" type="curve" smooth="yes"/>
      <point x="40" y="96"/>
      <point x="164" y="-10"/>
    </contour>
  </outline>
</glyph>
<glyph name="h" format="2">
  <advance width="759"/>
  <unicode hex="0068"/>
  <outline>
    <contour>
      <point x="743" y="0" type="line"/>
      <point x="743" y="27" type="line"/>
      <point x="741" y="27" type="line" smooth="yes"/>
      <point x="685" y="27"/>
      <point x="644" y="33"/>
      <point x="644" y="60" type="curve" smooth="yes"/>
      <point x="644" y="369" type="line" smooth="yes"/>
      <point x="644" y="475"/>
      <point x="572" y="528"/>
      <point x="452" y="528" type="curve" smooth="yes"/>
      <point x="346" y="528"/>
      <point x="275" y="485"/>
      <point x="211" y="411" type="curve"/>
      <point x="211" y="370" type="line"/>
      <point x="273" y="448"/>
      <point x="338" y="495"/>
      <point x="429" y="495" type="curve" smooth="yes"/>
      <point x="512" y="495"/>
      <point x="550" y="459"/>
      <point x="550" y="367" type="curve" smooth="yes"/>
      <point x="550" y="37" type="line" smooth="yes"/>
      <point x="550" y="30"/>
      <point x="496" y="27"/>
      <point x="461" y="27" type="curve" smooth="yes"/>
      <point x="461" y="27" type="line"/>
      <point x="461" y="0" type="line"/>
    </contour>
    <contour>
      <point x="227" y="750" type="line"/>
      <point x="33" y="750" type="line"/>
      <point x="33" y="724" type="line"/>
      <point x="49" y="722" type="line" smooth="yes"/>
      <point x="110" y="714"/>
      <point x="133" y="707"/>
      <point x="133" y="681" type="curve" smooth="yes"/>
      <point x="133" y="60" type="line" smooth="yes"/>
      <point x="133" y="33"/>
      <point x="91" y="27"/>
      <point x="35" y="27" type="curve" smooth="yes"/>
      <point x="34" y="27" type="line"/>
      <point x="34" y="0" type="line"/>
      <point x="320" y="0" type="line"/>
      <point x="320" y="27" type="line"/>
      <point x="320" y="27" type="line" smooth="yes"/>
      <point x="271" y="27"/>
      <point x="227" y="31"/>
      <point x="227" y="39" type="curve" smooth="yes"/>
    </contour>
  </outline>
</glyph>
<glyph name="w" format="2">
  <advance width="959"/>
  <unicode hex="0077"/>
  <outline>
    <contour>
      <point x="491" y="458" type="line"/>
      <point x="312" y="0" type="line"/>
      <point x="249" y="0" type="line"/>
      <point x="73" y="458" type="line" smooth="yes"/>
      <point x="64" y="485"/>
      <point x="35" y="491"/>
      <point x="6" y="491" type="curve"/>
      <point x="5" y="491" type="line"/>
      <point x="5" y="518" type="line"/>
      <point x="262" y="518" type="line"/>
      <point x="262" y="491" type="line"/>
      <point x="259" y="491" type="line" smooth="yes"/>
      <point x="216" y="491"/>
      <point x="158" y="489"/>
      <point x="158" y="482" type="curve"/>
      <point x="318" y="50" type="line"/>
      <point x="296" y="50" type="line"/>
      <point x="479" y="518" type="line"/>
      <point x="536" y="518" type="line"/>
      <point x="722" y="50" type="line"/>
      <point x="699" y="46" type="line"/>
      <point x="854" y="471" type="line"/>
      <point x="854" y="484"/>
      <point x="803" y="491"/>
      <point x="756" y="491" type="curve" smooth="yes"/>
      <point x="753" y="491" type="line"/>
      <point x="753" y="518" type="line"/>
      <point x="955" y="518" type="line"/>
      <point x="955" y="491" type="line"/>
      <point x="953" y="491" type="line"/>
      <point x="921" y="491"/>
      <point x="894" y="479"/>
      <point x="882" y="447" type="curve" smooth="yes"/>
      <point x="717" y="0" type="line"/>
      <point x="654" y="0" type="line"/>
      <point x="472" y="457" type="line"/>
    </contour>
  </outline>
</glyph>
<glyph name="dieresis" format="2">
  <advance width="620"/>
  <unicode hex="00A8"/>
  <anchor x="310.0" y="526.0" name="_top"/>
  <outline>
    <contour>
      <point x="177" y="624" type="curve" smooth="yes"/>
      <point x="216" y="624"/>
      <point x="245" y="645"/>
      <point x="245" y="680" type="curve" smooth="yes"/>
      <point x="245" y="714"/>
      <point x="216" y="735"/>
      <point x="177" y="735" type="curve" smooth="yes"/>
      <point x="138" y="735"/>
      <point x="109" y="714"/>
      <point x="109" y="680" type="curve" smooth="yes"/>
      <point x="109" y="645"/>
      <point x="138" y="624"/>
    </contour>
    <contour>
      <point x="443" y="624" type="curve" smooth="yes"/>
      <point x="482" y="624"/>
      <point x="512" y="645"/>
      <point x="512" y="680" type="curve" smooth="yes"/>
      <point x="512" y="714"/>
      <point x="482" y="735"/>
      <point x="443" y="735" type="curve" smooth="yes"/>
      <point x="405" y="735"/>
      <point x="375" y="714"/>
      <point x="375" y="680" type="curve" smooth="yes"/>
      <point x="375" y="645"/>
      <point x="405" y="624"/>
    </contour>
  </outline>
</glyph>
<glyph name="registered" format="2">
  <advance width="1049"/>
  <unicode hex="00AE"/>
  <outline>
    <contour>
      <point x="94" y="355" type="curve" smooth="yes"/>
      <point x="94" y="552"/>
      <point x="275" y="706"/>
      <point x="524" y="706" type="curve" smooth="yes"/>
      <point x="773" y="706"/>
      <point x="955" y="552"/>
      <point x="955" y="355" type="curve" smooth="yes"/>
      <point x="955" y="158"/>
      <point x="773" y="4"/>
      <point x="524" y="4" type="curve" smooth="yes"/>
      <point x="275" y="4"/>
      <point x="94" y="158"/>
    </contour>
    <contour>
      <point x="44" y="355" type="curve" smooth="yes"/>
      <point x="44" y="138"/>
      <point x="253" y="-28"/>
      <point x="524" y="-28" type="curve" smooth="yes"/>
      <point x="797" y="-28"/>
      <point x="1005" y="138"/>
      <point x="1005" y="355" type="curve" smooth="yes"/>
      <point x="1005" y="572"/>
      <point x="797" y="738"/>
      <point x="524" y="738" type="curve" smooth="yes"/>
      <point x="253" y="738"/>
      <point x="44" y="572"/>
    </contour>
    <contour>
      <point x="314" y="153" type="line"/>
      <point x="533" y="153" type="line"/>
      <point x="533" y="180" type="line"/>
      <point x="520" y="180" type="line" smooth="yes"/>
      <point x="496" y="180"/>
      <point x="465" y="181"/>
      <point x="465" y="185" type="curve" smooth="yes"/>
      <point x="465" y="321" type="line"/>
      <point x="526" y="321" type="line" smooth="yes"/>
      <point x="644" y="321"/>
      <point x="730" y="368"/>
      <point x="730" y="443" type="curve" smooth="yes"/>
      <point x="730" y="515"/>
      <point x="650" y="557"/>
      <point x="530" y="557" type="curve" smooth="yes"/>
      <point x="314" y="557" type="line"/>
      <point x="314" y="530" type="line"/>
      <point x="321" y="530" type="line" smooth="yes"/>
      <point x="357" y="530"/>
      <point x="383" y="526"/>
      <point x="383" y="510" type="curve" smooth="yes"/>
      <point x="383" y="200" type="line" smooth="yes"/>
      <point x="383" y="184"/>
      <point x="357" y="180"/>
      <point x="321" y="180" type="curve" smooth="yes"/>
      <point x="314" y="180" type="line"/>
    </contour>
    <contour>
      <point x="529" y="527" type="line" smooth="yes"/>
      <point x="606" y="527"/>
      <point x="644" y="504"/>
      <point x="644" y="443" type="curve" smooth="yes"/>
      <point x="644" y="382"/>
      <point x="606" y="351"/>
      <point x="525" y="351" type="curve" smooth="yes"/>
      <point x="465" y="351" type="line"/>
      <point x="465" y="527" type="line"/>
    </contour>
    <contour>
      <point x="529" y="336" type="line"/>
      <point x="641" y="152" type="line"/>
      <point x="763" y="152" type="line"/>
      <point x="763" y="179" type="line"/>
      <point x="753" y="179" type="line" smooth="yes"/>
      <point x="728" y="179"/>
      <point x="712" y="182"/>
      <point x="704" y="195" type="curve" smooth="yes"/>
      <point x="606" y="345" type="line"/>
    </contour>
  </outline>
</glyph>
<glyph name="eth" format="2">
  <advance width="724"/>
  <unicode hex="00F0"/>
  <outline>
    <contour>
      <point x="586" y="407" type="curve"/>
      <point x="550" y="482"/>
      <point x="458" y="518"/>
      <point x="362" y="518" type="curve" smooth="yes"/>
      <point x="186" y="518"/>
      <point x="51" y="413"/>
      <point x="51" y="255" type="curve" smooth="yes"/>
      <point x="51" y="97"/>
      <point x="180" y="-12"/>
      <point x="362" y="-12" type="curve" smooth="yes"/>
      <point x="547" y="-12"/>
      <point x="672" y="110"/>
      <point x="672" y="293" type="curve" smooth="yes"/>
      <point x="672" y="484"/>
      <point x="554" y="661"/>
      <point x="219" y="753" type="curve"/>
      <point x="200" y="731" type="line"/>
      <point x="476" y="645"/>
      <point x="574" y="502"/>
      <point x="574" y="293" type="curve" smooth="yes"/>
      <point x="574" y="124"/>
      <point x="502" y="18"/>
      <point x="362" y="18" type="curve" smooth="yes"/>
      <point x="226" y="18"/>
      <point x="151" y="112"/>
      <point x="151" y="255" type="curve" smooth="yes"/>
      <point x="151" y="396"/>
      <point x="237" y="488"/>
      <point x="373" y="488" type="curve" smooth="yes"/>
      <point x="471" y="488"/>
      <point x="539" y="444"/>
      <point x="604" y="359" type="curve"/>
      <point x="618" y="389"/>
      <point x="619" y="396"/>
    </contour>
    <contour>
      <point x="140" y="581" type="line"/>
      <point x="155" y="555" type="line"/>
      <point x="595" y="704" type="line"/>
      <point x="581" y="730" type="line"/>
    </contour>
  </outline>
</glyph>
<glyph name="circumflex" format="2">
  <advance width="620"/>
  <unicode hex="02C6"/>
  <anchor x="304" y="529.0" name="_top"/>
  <outline>
    <contour>
      <point x="355" y="746" type="line"/>
      <point x="490" y="594" type="line"/>
      <point x="490" y="584" type="line"/>
      <point x="454" y="584" type="line"/>
      <point x="289" y="701" type="line"/>
      <point x="322" y="701" type="line"/>
      <point x="157" y="584" type="line"/>
      <point x="130" y="584" type="line"/>
      <point x="130" y="594" type="line"/>
      <point x="264" y="746" type="line"/>
    </contour>
  </outline>
</glyph>
<glyph name="verticallinemod" format="2">
  <advance width="620"/>
  <unicode hex="02C8"/>
  <outline>
    <contour>
      <point x="277" y="547" type="line"/>
      <point x="342" y="547" type="line"/>
      <point x="342" y="750" type="line"/>
      <point x="277" y="750" type="line"/>
    </contour>
  </outline>
</glyph>
<glyph name="hungarumlaut" format="2">
  <advance width="619"/>
  <unicode hex="02DD"/>
  <anchor x="308" y="525.0" name="_top"/>
  <outline>
    <contour>
      <point x="213" y="713" type="curve" smooth="yes"/>
      <point x="182" y="590" type="line"/>
      <point x="182" y="576" type="line"/>
      <point x="207" y="576" type="line"/>
      <point x="289" y="671" type="line" smooth="yes"/>
      <point x="306" y="692"/>
      <point x="318" y="712"/>
      <point x="318" y="730" type="curve" smooth="yes"/>
      <point x="318" y="751"/>
      <point x="299" y="766"/>
      <point x="271" y="766" type="curve" smooth="yes"/>
      <point x="240" y="766"/>
      <point x="222" y="749"/>
    </contour>
    <contour>
      <point x="397" y="713" type="curve" smooth="yes"/>
      <point x="367" y="590" type="line"/>
      <point x="367" y="576" type="line"/>
      <point x="391" y="576" type="line"/>
      <point x="474" y="671" type="line" smooth="yes"/>
      <point x="491" y="692"/>
      <point x="502" y="712"/>
      <point x="502" y="730" type="curve" smooth="yes"/>
      <point x="502" y="751"/>
      <point x="483" y="766"/>
      <point x="456" y="766" type="curve" smooth="yes"/>
      <point x="425" y="766"/>
      <point x="406" y="749"/>
    </contour>
  </outline>
</glyph>
<glyph name="won" format="2">
  <advance width="695"/>
  <unicode hex="20A9"/>
  <outline>
    <contour>
      <point x="-8" y="710" type="line"/>
      <point x="-8" y="680" type="line"/>
      <point x="-2" y="680" type="line" smooth="yes"/>
      <point x="30" y="680"/>
      <point x="52" y="677"/>
      <point x="58" y="643" type="curve" smooth="yes"/>
      <point x="152" y="0" type="line"/>
      <point x="228" y="0" type="line"/>
      <point x="364" y="683" type="line"/>
      <point x="341" y="689" type="line"/>
      <point x="481" y="0" type="line"/>
      <point x="556" y="0" type="line"/>
      <point x="637" y="637" type="line" smooth="yes"/>
      <point x="641" y="671"/>
      <point x="666" y="680"/>
      <point x="696" y="680" type="curve" smooth="yes"/>
      <point x="703" y="680" type="line"/>
      <point x="703" y="710" type="line"/>
      <point x="520" y="710" type="line"/>
      <point x="520" y="680" type="line"/>
      <point x="530" y="680" type="line" smooth="yes"/>
      <point x="562" y="680"/>
      <point x="596" y="673"/>
      <point x="596" y="662" type="curve"/>
      <point x="518" y="19" type="line"/>
      <point x="543" y="22" type="line"/>
      <point x="401" y="710" type="line"/>
      <point x="327" y="710" type="line"/>
      <point x="191" y="13" type="line"/>
      <point x="220" y="16" type="line"/>
      <point x="127" y="670" type="line"/>
      <point x="127" y="677"/>
      <point x="163" y="680"/>
      <point x="193" y="680" type="curve" smooth="yes"/>
      <point x="205" y="680" type="line"/>
      <point x="205" y="710" type="line"/>
    </contour>
    <contour>
      <point x="-8" y="445" type="line"/>
      <point x="-8" y="414" type="line"/>
      <point x="129" y="414" type="line"/>
      <point x="138" y="414" type="line"/>
      <point x="285" y="414" type="line"/>
      <point x="297" y="445" type="line"/>
    </contour>
    <contour>
      <point x="432" y="414" type="line"/>
      <point x="576" y="414" type="line"/>
      <point x="588" y="414" type="line"/>
      <point x="703" y="414" type="line"/>
      <point x="703" y="445" type="line"/>
      <point x="422" y="445" type="line"/>
    </contour>
    <contour>
      <point x="251" y="248" type="line"/>
      <point x="456" y="248" type="line"/>
      <point x="446" y="280" type="line"/>
      <point x="264" y="280" type="line"/>
    </contour>
    <contour>
      <point x="131" y="280" type="line"/>
      <point x="-8" y="280" type="line"/>
      <point x="-8" y="248" type="line"/>
      <point x="143" y="248" type="line"/>
    </contour>
    <contour>
      <point x="568" y="248" type="line"/>
      <point x="703" y="248" type="line"/>
      <point x="703" y="280" type="line"/>
      <point x="580" y="280" type="line"/>
    </contour>
  </outline>
</glyph>
<glyph name="baht" format="2">
  <advance width="696"/>
  <outline>
    <contour>
      <point x="328" y="790" type="line"/>
      <point x="328" y="689" type="line"/>
      <point x="328" y="674" type="line"/>
      <point x="328" y="34" type="line"/>
      <point x="328" y="24" type="line"/>
      <point x="328" y="-112" type="line"/>
      <point x="373" y="-112" type="line"/>
      <point x="373" y="25" type="line"/>
      <point x="373" y="36" type="line"/>
      <point x="373" y="676" type="line"/>
      <point x="373" y="686" type="line"/>
      <point x="373" y="790" type="line"/>
    </contour>
    <contour>
      <point x="350" y="702" type="curve"/>
      <point x="4" y="702" type="line"/>
      <point x="4" y="672" type="line"/>
      <point x="18" y="672" type="line" smooth="yes"/>
      <point x="63" y="672"/>
      <point x="98" y="665"/>
      <point x="98" y="636" type="curve" smooth="yes"/>
      <point x="98" y="74" type="line" smooth="yes"/>
      <point x="98" y="45"/>
      <point x="63" y="38"/>
      <point x="18" y="38" type="curve" smooth="yes"/>
      <point x="4" y="38" type="line"/>
      <point x="4" y="8" type="line"/>
      <point x="359" y="8" type="line" smooth="yes"/>
      <point x="560" y="8"/>
      <point x="669" y="84"/>
      <point x="669" y="207" type="curve" smooth="yes"/>
      <point x="669" y="316"/>
      <point x="557" y="386"/>
      <point x="336" y="386" type="curve"/>
      <point x="329" y="363" type="line"/>
      <point x="535" y="363"/>
      <point x="634" y="431"/>
      <point x="634" y="532" type="curve" smooth="yes"/>
      <point x="634" y="637"/>
      <point x="537" y="702"/>
    </contour>
    <contour>
      <point x="364" y="388" type="curve"/>
      <point x="189" y="388" type="line"/>
      <point x="189" y="665" type="line"/>
      <point x="354" y="665" type="line"/>
      <point x="488" y="665"/>
      <point x="541" y="618"/>
      <point x="541" y="528" type="curve" smooth="yes"/>
      <point x="541" y="452"/>
      <point x="495" y="388"/>
    </contour>
    <contour>
      <point x="372" y="356" type="line"/>
      <point x="516" y="356"/>
      <point x="573" y="292"/>
      <point x="573" y="209" type="curve" smooth="yes"/>
      <point x="573" y="103"/>
      <point x="510" y="44"/>
      <point x="362" y="44" type="curve" smooth="yes"/>
      <point x="189" y="44" type="line"/>
      <point x="189" y="356" type="line"/>
    </contour>
  </outline>
</glyph>
<glyph name="brokenbar.uc" format="2">
  <advance width="288"/>
  <outline>
    <contour>
      <point x="133" y="691" type="line"/>
      <point x="133" y="494" type="line"/>
      <point x="156" y="494" type="line"/>
      <point x="156" y="691" type="line"/>
    </contour>
    <contour>
      <point x="121" y="291" type="line"/>
      <point x="121" y="-32" type="line"/>
      <point x="168" y="-32" type="line"/>
      <point x="168" y="291" type="line"/>
    </contour>
  </outline>
</glyph>
<glyph name="five.den" format="2">
  <advance width="380"/>
  <outline>
    <contour>
      <point x="177" y="-5" type="curve" smooth="yes"/>
      <point x="95" y="-5"/>
      <point x="44" y="33"/>
      <point x="17" y="79" type="curve"/>
      <point x="46" y="93" type="line"/>
      <point x="68" y="51"/>
      <point x="109" y="21"/>
      <point x="171" y="21" type="curve" smooth="yes"/>
      <point x="234" y="21"/>
      <point x="271" y="53"/>
      <point x="271" y="113" type="curve" smooth="yes"/>
      <point x="271" y="164"/>
      <point x="233" y="196"/>
      <point x="179" y="196" type="curve" smooth="yes"/>
      <point x="137" y="196"/>
      <point x="106" y="179"/>
      <point x="82" y="144" type="curve"/>
      <point x="54" y="144" type="line"/>
      <point x="54" y="341" type="line"/>
      <point x="320" y="341" type="line"/>
      <point x="311" y="287" type="line"/>
      <point x="74" y="287" type="line"/>
      <point x="87" y="306" type="line"/>
      <point x="87" y="171" type="line"/>
      <point x="86" y="169"/>
      <point x="76" y="169"/>
      <point x="76" y="171" type="curve"/>
      <point x="100" y="204"/>
      <point x="145" y="222"/>
      <point x="201" y="222" type="curve" smooth="yes"/>
      <point x="299" y="222"/>
      <point x="354" y="177"/>
      <point x="354" y="114" type="curve" smooth="yes"/>
      <point x="354" y="46"/>
      <point x="284" y="-5"/>
    </contour>
  </outline>
</glyph>
<glyph name="one.old" format="2">
  <advance width="695"/>
  <outline>
    <contour>
      <point x="438" y="69" type="curve" smooth="yes"/>
      <point x="438" y="548" type="line"/>
      <point x="377" y="548" type="line"/>
      <point x="335" y="491"/>
      <point x="243" y="468"/>
      <point x="120" y="466" type="curve"/>
      <point x="120" y="417" type="line"/>
      <point x="227" y="415"/>
      <point x="333" y="460"/>
      <point x="356" y="510" type="curve"/>
      <point x="355" y="508"/>
      <point x="351" y="508"/>
      <point x="342" y="498" type="curve"/>
      <point x="342" y="69" type="line" smooth="yes"/>
      <point x="342" y="39"/>
      <point x="291" y="31"/>
      <point x="201" y="31" type="curve" smooth="yes"/>
      <point x="138" y="31" type="line"/>
      <point x="138" y="0" type="line"/>
      <point x="640" y="0" type="line"/>
      <point x="640" y="31" type="line"/>
      <point x="592" y="31" type="line" smooth="yes"/>
      <point x="494" y="31"/>
      <point x="438" y="39"/>
    </contour>
  </outline>
</glyph>
<glyph name="uni20AB.proportional" format="2">
  <advance width="749"/>
  <outline>
    <contour>
      <point x="149" y="253" type="curve" smooth="yes"/>
      <point x="149" y="396"/>
      <point x="218" y="490"/>
      <point x="351" y="490" type="curve" smooth="yes"/>
      <point x="454" y="490"/>
      <point x="521" y="442"/>
      <point x="572" y="339" type="curve"/>
      <point x="574" y="340"/>
      <point x="595" y="351"/>
      <point x="602" y="352" type="curve"/>
      <point x="535" y="474"/>
      <point x="468" y="526"/>
      <point x="339" y="526" type="curve" smooth="yes"/>
      <point x="169" y="526"/>
      <point x="50" y="414"/>
      <point x="50" y="253" type="curve" smooth="yes"/>
      <point x="50" y="95"/>
      <point x="166" y="-11"/>
      <point x="324" y="-11" type="curve" smooth="yes"/>
      <point x="462" y="-11"/>
      <point x="530" y="52"/>
      <point x="601" y="175" type="curve"/>
      <point x="595" y="177"/>
      <point x="588" y="187"/>
      <point x="576" y="190" type="curve"/>
      <point x="518" y="88"/>
      <point x="455" y="25"/>
      <point x="340" y="25" type="curve" smooth="yes"/>
      <point x="216" y="25"/>
      <point x="149" y="114"/>
    </contour>
    <contour>
      <point x="542" y="742" type="line"/>
      <point x="542" y="116" type="line"/>
      <point x="547" y="122" type="line"/>
      <point x="547" y="0" type="line"/>
      <point x="732" y="0" type="line"/>
      <point x="732" y="29" type="line"/>
      <point x="730" y="29" type="line"/>
      <point x="676" y="29"/>
      <point x="636" y="36"/>
      <point x="636" y="65" type="curve" smooth="yes"/>
      <point x="636" y="742" type="line"/>
    </contour>
    <contour>
      <point x="113" y="-128" type="line"/>
      <point x="113" y="-159" type="line"/>
      <point x="683" y="-159" type="line"/>
      <point x="683" y="-128" type="line"/>
    </contour>
    <contour>
      <point x="310" y="637" type="line"/>
      <point x="310" y="606" type="line"/>
      <point x="745" y="606" type="line"/>
      <point x="745" y="637" type="line"/>
    </contour>
  </outline>
</glyph>
